# xmcd
#
# Track frame offsets:
#	150
#	11120
#	25027
#	37827
#	50407
#	60822
#	76377
#	92697
#	102210
#	116482
#	129717
#	142465
#	151160
#	160135
#	171285
#	184767
#	193712
#	206847
#	220757
#	233092
#	245297
#
# Disc length: 3448 seconds
#
# Revision: 1
# Processed by: cddbd v1.5.1PL0 Copyright (c) Steve Scherf et al.
# Submitted via: audiograbber 1.82.02
#
DISCID=170d7615
DTITLE=Frankie McWhorter - Texas Sandman
DYEAR=1900
DGENRE=
TTITLE0=Down Home Rag (Wilbur Sweatman)
TTITLE1=Oklahoma Waltz (Jimmie Kenton)
TTITLE2=Mrs. McLeod's Reel
TTITLE3=Starlight Schottische (Larry Wellington)
TTITLE4=Gals In The Morning
TTITLE5=Jesusita en Chihuahua
TTITLE6=Little Green Valley
TTITLE7=Evalena
TTITLE8=Rabbit, Where's Your Mama?
TTITLE9=Put On Your Old Grey Bonnet (Stanley Murphy And Percy Wenrich)
TTITLE10=Between The Rivers (Frankie McWhorter)
TTITLE11=Hound Dog Waltz
TTITLE12=Frieda
TTITLE13=Flop-Eared Mule Schottische
TTITLE14=There's An Old Spinning Wheel
TTITLE15=Rickett's Hornpipe
TTITLE16=Green Grow The Lilacs
TTITLE17=Little Brown Jug (Joseph E. Winner)
TTITLE18=Peek A Boo Waltz
TTITLE19=Prettiest Girl In The County
TTITLE20=Texas Sandman (Cindy Walker)
EXTD=FPRS 0006
EXTT0=
EXTT1=
EXTT2=
EXTT3=
EXTT4=
EXTT5=
EXTT6=
EXTT7=
EXTT8=
EXTT9=
EXTT10=
EXTT11=
EXTT12=
EXTT13=
EXTT14=
EXTT15=
EXTT16=
EXTT17=
EXTT18=
EXTT19=
EXTT20=
PLAYORDER=
